# xmcd
#
# Track frame offsets: 
#        150
#        19978
#        52402
#        79057
#        95350
#        121487
#        138343
#        156690
#        172449
#        192652
#        218077
#        231900
#        257071
#        272835
#        287028
#        301466
#        323666
#        338926
#
# Disc length: 4800 seconds
#
# Revision: 3
# Processed by: cddbd v1.5.2PL0 Copyright (c) Steve Scherf et al.
# Submitted via: ExactAudioCopy v1.0b1
#
DISCID=2212be12
DTITLE=Peter Green - Man Of The World - The Anthology 1968-1988 [CD
DTITLE=2)
DYEAR=2004
DGENRE=Blues
TTITLE0=Jumpin' At Shadows (live)
TTITLE1=Black Magic Woman (live)
TTITLE2=Big Boy Now
TTITLE3=You Won't See Me Anymore
TTITLE4=Got To See Her Tonight
TTITLE5=Same Old Blues
TTITLE6=Showbiz Blues
TTITLE7=Ride With Your Daddy Tonight
TTITLE8=Tribal Dance
TTITLE9=Give Me Back My Freedom
TTITLE10=Bandit
TTITLE11=Baby, When The Sun Goes Down
TTITLE12=What Am I Doing Here?
TTITLE13=Shining Star
TTITLE14=Apostle
TTITLE15=Stranger Blues
TTITLE16=Lazy Poker Blues
TTITLE17=The Green Manalishi
EXTD=YEAR: 2004
EXTT0=
EXTT1=
EXTT2=
EXTT3=
EXTT4=
EXTT5=
EXTT6=
EXTT7=
EXTT8=
EXTT9=
EXTT10=
EXTT11=
EXTT12=
EXTT13=
EXTT14=
EXTT15=
EXTT16=
EXTT17=
PLAYORDER=
